# xmcd
#
# Track frame offsets:
#	150
#	12275
#	26087
#	37140
#	49397
#	60812
#	72190
#	84287
#	97282
#	107420
#	118760
#	128967
#
# Disc length: 1871 seconds
#
# Revision: 0
# Processed by: cddbd v1.5.1PL0 Copyright (c) Steve Scherf et al.
# Submitted via: dBpowerAMP V4.0
#
DISCID=a0074d0c
DTITLE=Romantic String Orchestra - Solo para enamorados
DYEAR=1900
DGENRE=Instrumental
TTITLE0=Somos - Tres palabras
TTITLE1=Flores negras - Desesperadamente
TTITLE2=Angelitos negros - Luna Lunera
TTITLE3=Infortunio - Se muy bien que vendrás
TTITLE4=Clavel del aire - Milonguita
TTITLE5=Cuando vuelvan a florecer las lilas - Abran las ventanas
TTITLE6=Esperaré - Es tan bueno
TTITLE7=Bajo los puentes de París - Madmoiselle de París
TTITLE8=Para que sufras - Los aretes de la luna
TTITLE9=Hello Dolly - Viva María
TTITLE10=Rosa de Washington - Molly
TTITLE11=Mama yo quiero un novio - Siga el corso
EXTD=
EXTT0=
EXTT1=
EXTT2=
EXTT3=
EXTT4=
EXTT5=
EXTT6=
EXTT7=
EXTT8=
EXTT9=
EXTT10=
EXTT11=
PLAYORDER=
